<svg width="32" height="32" viewBox="0 0 32 32" fill="none" xmlns="http://www.w3.org/2000/svg">
<rect width="32" height="32" rx="6" fill="#0D0D0D"/>
<g clip-path="url(#clip0_90_148)">
<path d="M15.5467 13.2856C15.44 12.4216 15.2667 11.6152 15.04 10.852C14.8133 10.0888 14.52 9.4264 14.1667 8.8504C13.8067 8.2744 13.38 7.8208 12.88 7.4896C12.38 7.1656 11.8067 7 11.16 7H6.33333C5.6 7 5 7.648 5 8.44V23.56C5 24.352 5.6 25 6.33333 25H11.16C11.96 25 12.6467 24.7408 13.22 24.2296C13.7933 23.7184 14.2667 23.0344 14.6333 22.1704C15 21.3064 15.2733 20.3344 15.4533 19.2544C15.6267 18.1744 15.7133 17.0656 15.7133 15.928C15.7133 15.0352 15.66 14.1496 15.5467 13.2856Z" fill="white"/>
<path d="M21.0126 12.76H24.1259C25.7126 12.76 26.9992 11.3704 26.9992 9.6568V7H17.6659C16.9326 7 16.3326 7.648 16.3326 8.44V12.652C16.3326 12.8248 16.3326 12.9976 16.3326 13.1704C16.3326 13.6096 16.5059 13.948 16.8992 14.0704C17.4059 14.2072 17.9059 14.344 18.4059 14.488L19.5392 14.812L20.5459 15.1L21.1859 15.28C21.2192 15.2872 21.2592 15.3016 21.2926 15.3088C21.8126 15.4528 21.8192 16.0144 21.2926 16.1728L21.2126 16.1944L21.0592 16.2376L20.8459 16.3024L20.5792 16.3816L20.2659 16.4752L19.9192 16.576L19.5459 16.684L19.1592 16.7992L18.7659 16.9144L18.3792 17.0296C18.2192 17.08 18.0526 17.1232 17.8926 17.1736C17.7326 17.224 17.5659 17.2672 17.4059 17.3176C17.2459 17.368 17.0792 17.4112 16.9192 17.4616C16.8192 17.4904 16.7192 17.5192 16.6326 17.5624C16.5726 17.5912 16.5126 17.6344 16.4659 17.692C16.4192 17.7496 16.3859 17.8216 16.3659 17.8936C16.3659 17.9008 16.3659 17.9152 16.3592 17.9224C16.3259 18.0952 16.3326 18.2752 16.3326 18.4552C16.3326 18.5776 16.3326 18.7 16.3326 18.8224V23.8552C16.3326 24.4816 16.7992 24.9856 17.3792 24.9856H26.9992V22.3144C26.9992 20.608 25.7192 19.2256 24.1392 19.2256H21.0592C21.0592 19.2256 21.0392 19.2184 21.0392 19.2112C21.0392 19.204 21.0459 19.1968 21.0592 19.1968C22.0459 18.9592 23.0326 18.7288 24.0192 18.4984C25.0059 18.268 25.9992 18.0376 26.9992 17.8C26.9992 15.6832 25.6326 13.8472 23.7126 13.4008C23.7126 13.4008 21.0126 12.7744 21.0126 12.7456V12.76Z" fill="white"/>
<path d="M7.94727 14.3944V17.152C7.94727 17.476 8.25393 17.7064 8.53393 17.584L11.8873 16.1656C12.2539 16.0072 12.2473 15.4456 11.8806 15.3016L8.52727 13.9624C8.24727 13.8472 7.94727 14.0776 7.94727 14.3944Z" fill="black"/>
</g>
<defs>
<clipPath id="clip0_90_148">
<rect width="22" height="18" fill="white" transform="translate(5 7)"/>
</clipPath>
</defs>
</svg>
