<svg width="32" height="32" viewBox="0 0 32 32" fill="none" xmlns="http://www.w3.org/2000/svg">
<g clip-path="url(#clip0_175_13)">
<rect width="32" height="32" rx="4" fill="#0D0D0D"/>
<g clip-path="url(#clip1_175_13)">
<path d="M20.051 21.1659L20.0519 21.1527C20.05 21.0392 19.9424 20.9221 19.8585 20.8382C19.5422 20.5204 19.2159 20.1957 18.8912 19.8709C18.6951 19.6545 18.4344 19.5351 18.1452 19.6796C17.7772 19.8475 17.4138 20.0293 17.0481 20.2026C15.2149 21.0816 13.3152 21.9916 11.4812 22.8714C11.2163 22.9993 10.9498 23.1273 10.6834 23.2552C10.4169 23.3832 10.1504 23.5111 9.88318 23.6383C9.61671 23.7662 9.34947 23.8934 9.083 24.0214C8.81498 24.1493 8.54774 24.2765 8.28127 24.4045C8.01481 24.5324 7.74678 24.6604 7.48031 24.7883C7.48031 24.7883 7.47874 24.7899 7.47719 24.7899C7.37638 24.8384 7.27249 24.7345 7.32329 24.6345C8.73865 21.8401 12.1045 14.8127 12.5998 13.7571C12.6301 13.6915 12.6207 13.6162 12.5746 13.5622C12.5332 13.5145 12.4816 13.4614 12.4485 13.4283C12.1561 13.1358 11.5058 12.484 11.2134 12.1931C11.0027 11.9698 10.9206 12.0889 10.7896 12.3492C10.3137 13.3237 9.8385 14.3099 9.3594 15.2969C7.8958 18.3196 6.42831 21.3431 4.96943 24.3595C4.72151 24.7983 5.06481 25.0583 5.37959 25.37C5.39883 25.3892 5.41807 25.4084 5.43808 25.4285L5.4981 25.4885C5.68279 25.6732 5.86672 25.8571 6.05141 26.0418C6.37693 26.3673 6.70935 26.7013 7.03181 27.0222C7.26928 27.2911 7.56371 27.3152 7.87896 27.1324C8.61974 26.7779 9.35976 26.4226 10.1138 26.061C12.1713 25.0748 14.253 24.0766 16.3121 23.0887C17.0896 22.716 17.8914 22.3313 18.679 21.9546C19.0659 21.7663 19.4643 21.5818 19.8364 21.396C19.9607 21.3286 20.0454 21.2546 20.051 21.1659Z" fill="url(#paint0_linear_175_13)"/>
<path d="M28.3021 8.36985L28.303 8.36285C28.302 8.30532 28.2474 8.24602 28.2051 8.20369C28.0443 8.04285 27.8796 7.87817 27.7149 7.71349C27.6158 7.60333 27.4834 7.54328 27.3365 7.61634C27.1498 7.70147 26.9653 7.79358 26.7801 7.88181C25.851 8.32765 24.8883 8.78862 23.9576 9.23448C23.8232 9.29963 23.688 9.36401 23.5536 9.42917C23.4184 9.49355 23.284 9.55871 23.1481 9.62387C23.0129 9.68826 22.8777 9.75264 22.7425 9.81858C22.6065 9.88375 22.4713 9.94813 22.3362 10.0125C22.201 10.0769 22.065 10.1421 21.9306 10.2072C21.9306 10.2072 21.9306 10.2072 21.9298 10.208C21.879 10.2326 21.8259 10.1795 21.8513 10.1295C22.5689 8.71317 24.2753 5.15067 24.5257 4.61545C24.5409 4.58186 24.5358 4.54382 24.5136 4.51683C24.4928 4.49295 24.4667 4.46523 24.4497 4.4483C24.3004 4.299 23.9703 3.96887 23.8218 3.82035C23.7149 3.70716 23.673 3.76746 23.6071 3.89955C23.3656 4.39346 23.1256 4.89357 22.8825 5.39372C22.1412 6.92617 21.3967 8.45864 20.6569 9.98796C20.531 10.2109 20.7053 10.3428 20.8647 10.5005C20.8747 10.5105 20.8839 10.5198 20.8947 10.5305L20.9255 10.5613C21.0193 10.6552 21.1125 10.7483 21.2063 10.8422C21.371 11.0069 21.5403 11.1762 21.7035 11.3393C21.8241 11.4757 21.9733 11.4882 22.1329 11.3948C22.5079 11.2151 22.8838 11.0347 23.2659 10.8512C24.3091 10.3513 25.3648 9.84501 26.4088 9.34432C26.8027 9.15518 27.2098 8.96046 27.6091 8.76893C27.8053 8.67281 28.0076 8.57973 28.196 8.48525C28.2593 8.45116 28.3017 8.4134 28.3045 8.36905L28.3021 8.36985Z" fill="url(#paint1_linear_175_13)"/>
<path d="M18.0683 14.086C18.0046 14.005 17.8027 14.0561 17.6875 14.0666C16.7194 14.1513 16.0951 13.1719 15.4572 12.6031C14.9655 12.1114 14.7053 11.7836 14.0298 12.1405C13.7795 12.2784 13.6945 12.6051 13.4547 12.3339C13.21 12.0923 12.4781 11.362 12.2458 11.1249C11.9599 10.8767 12.1957 10.704 12.4551 10.4354C13.6488 9.14008 15.1716 8.65309 16.4867 9.82673C16.9321 10.2124 17.4219 10.7446 17.8691 11.1793C18.1907 11.5118 18.5505 11.9047 19.0247 11.6105C19.1772 11.5257 19.3032 11.372 19.4614 11.3447C19.5439 11.3361 19.6172 11.3843 19.6812 11.4435C19.9098 11.6612 20.3823 12.1399 20.6408 12.3985C21.178 12.8633 20.0421 13.0741 20.5644 13.8447C21.0645 14.4343 21.816 15.0695 22.3145 15.653C23.5556 17.0637 22.9325 18.5903 21.5731 19.8158C21.3335 20.0508 21.2155 20.1072 21.0179 19.8939C20.7808 19.6615 20.039 18.9197 19.7982 18.6742C19.5262 18.4336 19.7397 18.2339 19.8761 17.9837C20.233 17.3082 20.0299 17.1727 19.5389 16.6817C18.9901 16.0731 18.1606 15.5344 18.0671 14.6567C18.0424 14.4875 18.1477 14.2329 18.0753 14.0914L18.0684 14.0844L18.0683 14.086Z" fill="url(#paint2_linear_175_13)"/>
</g>
</g>
<defs>
<linearGradient id="paint0_linear_175_13" x1="6.28295" y1="16.7696" x2="15.3952" y2="25.8818" gradientUnits="userSpaceOnUse">
<stop stop-color="#FA8334"/>
<stop offset="0.83" stop-color="#FA9D34"/>
<stop offset="1" stop-color="#FAA334"/>
</linearGradient>
<linearGradient id="paint1_linear_175_13" x1="21.322" y1="6.14158" x2="25.9416" y2="10.7612" gradientUnits="userSpaceOnUse">
<stop stop-color="#5AB51F"/>
<stop offset="0.39" stop-color="#3A9B1F"/>
<stop offset="1" stop-color="#006D1F"/>
</linearGradient>
<linearGradient id="paint2_linear_175_13" x1="13.7807" y1="9.10061" x2="23.4023" y2="18.7223" gradientUnits="userSpaceOnUse">
<stop stop-color="#FA8334"/>
<stop offset="0.83" stop-color="#FA9D34"/>
<stop offset="1" stop-color="#FAA334"/>
</linearGradient>
<clipPath id="clip0_175_13">
<rect width="32" height="32" rx="4" fill="white"/>
</clipPath>
<clipPath id="clip1_175_13">
<rect width="23.9307" height="28.2818" fill="white" transform="translate(17.541 -2.4599) rotate(45)"/>
</clipPath>
</defs>
</svg>
