<svg width="32" height="32" viewBox="0 0 32 32" fill="none" xmlns="http://www.w3.org/2000/svg">
<g clip-path="url(#clip0_175_13)">
<rect width="32" height="32" rx="4" fill="#0D0D0D"/>
<g clip-path="url(#clip1_175_13)">
<path d="M9.52829 27.4901C10.1231 24.5632 11.7881 14.8007 11.9077 14.0178C11.9003 13.9792 11.7147 13.8693 11.6272 13.8174C11.224 13.5846 10.3263 13.0663 9.9231 12.8335C9.62969 12.6531 9.57959 12.7987 9.51891 13.1072C9.31351 14.257 9.11349 15.4194 8.90744 16.5825C8.28357 20.1455 7.65579 23.7103 7.03502 27.2654C6.90657 27.7917 7.353 27.9766 7.78606 28.2239C7.95363 28.311 8.12631 28.4506 8.31734 28.4358C8.41241 28.4206 8.49444 28.3594 8.56996 28.2972C8.86656 28.0384 9.28267 27.7097 9.51988 27.4949L9.52617 27.4889L9.52829 27.4901Z" fill="#FAA334"/>
<path d="M22.1518 19.9981C22.115 19.878 21.962 19.7828 21.848 19.7156C21.4109 19.4632 20.962 19.204 20.5142 18.9455C20.2387 18.7685 19.9219 18.7093 19.658 18.9362C19.3171 19.208 18.9855 19.4933 18.6493 19.7692C16.9639 21.1692 15.2193 22.6176 13.5339 24.0176C13.2901 24.2218 13.0458 24.4243 12.801 24.6278C12.5561 24.8314 12.3113 25.0349 12.0654 25.2378C11.8195 25.4408 11.5746 25.6443 11.3281 25.8483C11.0816 26.0522 10.8368 26.2558 10.5908 26.4587C10.3449 26.6616 10.1001 26.8652 9.85571 27.0704C9.58074 27.2991 9.30684 27.5285 9.034 27.7585C8.90783 27.8643 8.7832 27.9723 8.6575 28.0797C8.55173 28.1698 8.43449 28.2602 8.28932 28.2739C8.15727 28.287 8.02797 28.2316 7.89594 28.2103C7.87539 28.2067 7.84584 28.2089 7.84162 28.2284C7.83694 28.2463 7.85638 28.2617 7.87336 28.2715C8.15455 28.4338 8.4368 28.5968 8.71799 28.7591C9.16684 29.0183 9.62629 29.2835 10.0709 29.5402C10.407 29.7618 10.729 29.7113 11.01 29.4379C11.69 28.8728 12.371 28.3082 13.0641 27.7327C14.9551 26.1628 16.8678 24.5752 18.7606 23.0022C19.4753 22.4089 20.2121 21.7969 20.9352 21.1961C21.2899 20.898 21.6575 20.6018 21.9977 20.309C22.1096 20.206 22.1771 20.1062 22.1566 20.0119L22.1528 19.9987L22.1518 19.9981Z" fill="#FA8334"/>
<path d="M20.4683 10.5883C20.5416 10.6183 20.5821 10.6045 20.6348 10.5622C20.7997 10.4334 21.2514 10.0799 21.847 9.61442C22.9537 8.74873 24.5496 7.49899 25.6898 6.60726C26.3416 6.09588 26.8441 5.70581 27.0176 5.56692C27.0952 5.50861 27.0757 5.45893 26.9856 5.39452C26.8595 5.29426 26.4476 5.06191 26.2257 4.93655C26.0268 4.84235 25.9038 4.7026 25.758 4.8424C25.0659 5.42119 20.3567 9.36278 19.6646 9.94157C19.5955 9.99511 19.5662 10.0483 19.6627 10.1164C19.8146 10.2356 20.2514 10.4961 20.4582 10.5839L20.47 10.5879L20.4683 10.5883Z" fill="#378334"/>
<path d="M18.6491 9.54096C18.8269 9.67658 19.2697 9.92402 19.4485 9.99424C19.5507 10.0354 19.5877 10.0031 19.5979 9.9046C19.7531 9.01582 20.812 2.9668 20.9672 2.07802C21.0149 1.88021 20.8322 1.8462 20.6518 1.72005C20.4323 1.59056 20.0245 1.35099 19.8752 1.29093C19.7744 1.24507 19.7212 1.25146 19.7099 1.34939C19.6781 1.56872 19.5899 2.19936 19.4739 3.02012C19.2724 4.45239 18.9885 6.46097 18.7932 7.85291C18.6879 8.60144 18.607 9.17036 18.5785 9.37653C18.5688 9.44237 18.5765 9.48532 18.638 9.53319L18.6474 9.54138L18.6491 9.54096Z" fill="#6D8334"/>
<path d="M17.4795 13.6796C17.3863 13.6107 17.1865 13.7166 17.0668 13.7574C16.059 14.0962 15.0879 13.2249 14.2298 12.79C13.5517 12.3985 12.9566 11.9958 12.346 12.5461C12.1216 12.7559 11.9742 13.0309 11.6327 12.8062C11.2962 12.6147 10.6611 12.2494 10.3392 12.0595C9.95675 11.8716 10.155 11.6288 10.3485 11.2788C11.221 9.60592 12.6961 8.70008 14.4655 9.59794C15.0611 9.8896 15.7496 10.3242 16.3624 10.667C16.8092 10.9346 17.3156 11.2558 17.7307 10.8235C17.8672 10.6948 17.954 10.5004 18.1144 10.4308C18.1999 10.4005 18.2932 10.4324 18.3799 10.4783C18.6918 10.6487 19.3451 11.0315 19.7017 11.2373C20.4198 11.5887 19.2722 12.1038 20.0695 12.7812C20.7868 13.2737 21.7869 13.7494 22.5007 14.2357C24.2647 15.4026 24.0736 17.172 23.0025 18.8141C22.8196 19.1235 22.7111 19.2134 22.4338 19.0395C22.1084 18.8557 21.4738 18.4894 21.1403 18.2927C20.7751 18.1093 20.9411 17.8438 21.0089 17.5449C21.1802 16.741 20.5339 16.4269 19.8569 16.0361C19.0816 15.5362 18.0282 15.1823 17.6555 14.2814C17.5766 14.1094 17.6099 13.814 17.4886 13.6835L17.4791 13.678L17.4795 13.6796Z" fill="url(#paint0_linear_175_13)"/>
</g>
</g>
<defs>
<linearGradient id="paint0_linear_175_13" x1="11.3506" y1="9.53095" x2="24.6175" y2="17.1906" gradientUnits="userSpaceOnUse">
<stop stop-color="#FA8334"/>
<stop offset="0.83" stop-color="#FA9D34"/>
<stop offset="1" stop-color="#FAA334"/>
</linearGradient>
<clipPath id="clip0_175_13">
<rect width="32" height="32" rx="4" fill="white"/>
</clipPath>
<clipPath id="clip1_175_13">
<rect width="26.9421" height="29.3914" fill="white" transform="translate(11.6816 -3.4624) rotate(30)"/>
</clipPath>
</defs>
</svg>
