<svg width="411" height="153" viewBox="0 0 411 153" fill="none" xmlns="http://www.w3.org/2000/svg">
<path d="M268 7.89976L278.713 12.2088L277.088 0.776655L268 7.89976ZM4.99966 69.3998L0.204344 79.904L11.6989 78.8047L4.99966 69.3998ZM276.911 6.63327L277.03 7.62617C300.123 4.86065 331.424 4.92045 357.746 13.4234C384.038 21.9164 405.191 38.7544 408.506 69.5069L409.5 69.3998L410.494 69.2926C407.065 37.4756 385.093 20.1555 358.361 11.5203C331.66 2.89501 300.039 2.85635 276.793 5.64036L276.911 6.63327ZM5.85675 78.3623L4.8879 78.6099C7.07583 87.1708 12.9684 95.2188 21.6447 102.608C30.3264 110.001 41.8571 116.789 55.4456 122.82C82.6237 134.884 118.165 143.982 155.973 148.827C193.785 153.672 233.913 154.27 270.274 149.302C306.616 144.337 339.291 133.799 362.108 116.293L361.5 115.5L360.891 114.707C338.463 131.913 306.179 142.378 270.003 147.321C233.845 152.261 193.896 151.67 156.228 146.843C118.555 142.015 83.2118 132.957 56.257 120.992C42.779 115.01 31.4311 108.315 22.9415 101.085C14.4465 93.8505 8.87501 86.1335 6.82561 78.1147L5.85675 78.3623Z" fill="white"/>
</svg>
