<svg width="52" height="58" viewBox="0 0 52 58" fill="none" xmlns="http://www.w3.org/2000/svg">
<g clip-path="url(#clip0_175_2)">
<path d="M26.2732 55.0201C24.4429 49.431 17.8048 31.1043 17.2491 29.6483C17.1994 29.5896 16.7832 29.5849 16.5869 29.5826C15.6883 29.5826 13.6877 29.5826 12.789 29.5826C12.1245 29.5638 12.1813 29.862 12.3776 30.4491C13.1438 32.6167 13.9313 34.8006 14.7093 36.9917C17.1048 43.6963 19.4957 50.4079 21.8889 57.096C22.1821 58.1223 23.1068 57.9978 24.0692 57.9931C24.4334 57.9767 24.8567 58.0448 25.1618 57.8311C25.306 57.7113 25.3841 57.5258 25.4503 57.345C25.6962 56.6099 26.0746 55.6377 26.2638 55.0365L26.2685 55.0201H26.2732Z" fill="#FAA334"/>
<path d="M40.1407 29.7632C39.9633 29.5941 39.6157 29.5824 39.3603 29.5801C38.386 29.5801 37.3857 29.5801 36.3877 29.5801C35.7563 29.5495 35.1698 29.7609 34.9475 30.409C34.6401 31.2098 34.3611 32.0247 34.0655 32.8278C32.5993 36.8835 31.0811 41.08 29.6149 45.1356C29.4044 45.7251 29.1916 46.3122 28.9787 46.9016C28.7659 47.4911 28.5531 48.0805 28.3379 48.6699C28.1227 49.2594 27.9098 49.8488 27.6946 50.4406C27.4794 51.0324 27.2666 51.6218 27.0514 52.2113C26.8362 52.8007 26.6234 53.3902 26.4129 53.9819C26.1741 54.6442 25.9376 55.3064 25.7035 55.9687C25.5947 56.274 25.4906 56.5816 25.3842 56.8892C25.2943 57.1476 25.1856 57.4176 24.9562 57.5843C24.7481 57.737 24.4785 57.7699 24.2373 57.8638C24.1994 57.8779 24.1521 57.9108 24.164 57.9483C24.1734 57.9836 24.2207 57.9906 24.2586 57.9906C24.8852 57.9906 25.5143 57.9906 26.1409 57.9906C27.1413 57.9906 28.1652 57.9906 29.1561 57.9906C29.9318 58.0376 30.4213 57.6337 30.627 56.8892C31.2182 55.2524 31.8118 53.6156 32.4148 51.9483C34.0607 47.3995 35.7256 42.799 37.3715 38.2432C37.9934 36.5242 38.6343 34.7512 39.2633 33.011C39.5684 32.1515 39.8971 31.2826 40.1832 30.4466C40.2707 30.1601 40.2873 29.9229 40.162 29.782L40.143 29.7632H40.1407Z" fill="#FA8334"/>
<path d="M28.2476 15.3419C28.399 15.3207 28.4533 15.2573 28.5006 15.1329C28.652 14.7501 29.0658 13.7004 29.6121 12.3172C30.6266 9.74572 32.0881 6.0353 33.1333 3.38634C33.7293 1.86929 34.1928 0.706853 34.3488 0.298236C34.4221 0.122109 34.3417 0.0563545 34.1289 0.0352192C33.8215 -0.0117482 32.9087 -0.00235468 32.4168 0.00234206C31.9935 0.0375676 31.6529 -0.0798508 31.5442 0.302933C30.9459 1.97497 26.8784 13.3575 26.2801 15.0296C26.2162 15.1892 26.2186 15.309 26.4456 15.3301C26.8145 15.3842 27.7959 15.3982 28.2263 15.3442L28.25 15.3395L28.2476 15.3419Z" fill="#378334"/>
<path d="M24.1966 15.3466C24.6246 15.403 25.6037 15.3889 25.9702 15.3325C26.1807 15.302 26.2114 15.2104 26.1334 15.0319C25.5351 13.3599 21.4676 1.97733 20.8693 0.305294C20.7581 -0.0798383 20.42 0.0422769 19.9967 0.004703C19.5048 6.26191e-06 18.592 -0.00703885 18.2845 0.0375802C18.0717 0.0587155 17.9889 0.122121 18.0646 0.300597C18.2231 0.706865 18.6842 1.87166 19.2825 3.3887C20.3277 6.03531 21.7916 9.74808 22.8084 12.3195C23.3547 13.7027 23.7686 14.7548 23.9199 15.1352C23.9672 15.2574 24.0216 15.3231 24.1706 15.3442L24.1942 15.3489L24.1966 15.3466Z" fill="#6D8334"/>
<path d="M26.2329 23.5753C26.0107 23.5494 25.7789 23.9275 25.6181 24.1154C24.2607 25.6888 21.7965 25.1581 19.9425 25.2614C18.4314 25.2614 17.048 25.1604 16.5585 26.7033C16.3858 27.2833 16.4048 27.8986 15.6173 27.8516C14.87 27.8563 13.4558 27.8587 12.7346 27.8516C11.914 27.908 12.0109 27.2974 11.9967 26.5084C11.8407 22.7886 13.4322 19.785 17.2561 19.5736C18.5331 19.4844 20.1033 19.5478 21.4584 19.529C22.4634 19.5455 23.6198 19.5948 23.8965 18.4464C24.0006 18.0918 23.958 17.6738 24.159 17.3967C24.2725 17.2605 24.4593 17.2229 24.6485 17.2159C25.3343 17.1994 26.7958 17.2088 27.5904 17.2088C29.1299 17.1008 27.7086 19.1134 29.695 19.4844C31.3693 19.6183 33.5 19.4445 35.1625 19.5713C39.2371 19.8249 40.6252 23.0375 40.4195 26.9006C40.4124 27.6098 40.3178 27.8704 39.6864 27.847C38.9651 27.854 37.551 27.854 36.8037 27.847C36.0162 27.8939 36.0375 27.2763 35.8625 26.6986C35.373 25.1557 33.9896 25.2567 32.4808 25.2567C30.7025 25.1675 28.6001 25.6019 27.1079 24.4301C26.81 24.214 26.5806 23.6762 26.2519 23.5729H26.2306L26.2329 23.5753Z" fill="url(#paint0_linear_175_2)"/>
<path d="M40.942 7.0099C51.8959 14.6726 55.3816 30.2094 48.3581 41.5168C46.199 45.084 43.165 48.0594 39.6414 50.1306C46.1872 45.4433 50.0844 37.4706 49.6257 29.5495C49.2922 21.922 44.9173 14.7031 38.3407 10.9293C37.2127 10.2741 36.832 8.83223 37.4918 7.71206C38.1894 6.50969 39.8259 6.17857 40.9444 7.00755L40.942 7.0099Z" fill="white"/>
<path d="M11.0586 52.0892C0.107076 44.4288 -3.38103 28.8897 3.64248 17.5823C5.80156 14.0151 8.83799 11.0397 12.3592 8.96844C5.81338 13.6558 1.91853 21.6308 2.3773 29.5495C2.71074 37.1747 7.08566 44.3959 13.6622 48.1698C14.7902 48.825 15.171 50.2669 14.5112 51.387C13.8136 52.5894 12.1771 52.9205 11.0586 52.0915V52.0892Z" fill="white"/>
</g>
<defs>
<linearGradient id="paint0_linear_175_2" x1="11.9849" y1="22.5326" x2="41.5522" y2="22.5326" gradientUnits="userSpaceOnUse">
<stop stop-color="#FA8334"/>
<stop offset="0.83" stop-color="#FA9D34"/>
<stop offset="1" stop-color="#FAA334"/>
</linearGradient>
<clipPath id="clip0_175_2">
<rect width="52" height="58" fill="white"/>
</clipPath>
</defs>
</svg>
