<svg width="48" height="56" viewBox="0 0 48 56" fill="none" xmlns="http://www.w3.org/2000/svg">
<g clip-path="url(#clip0_183_20)">
<path d="M37.0681 29.5654L37.0506 29.5456C36.8869 29.3894 36.5682 29.3762 36.3302 29.3762C35.4309 29.374 34.5075 29.3762 33.5863 29.3762C33.0013 29.3476 32.4621 29.5456 32.2569 30.1528C31.9732 30.9031 31.7156 31.6665 31.4427 32.4212C30.0893 36.2186 28.6857 40.1525 27.3323 43.9521C27.138 44.5021 26.9415 45.0544 26.7451 45.6066C26.5486 46.1588 26.3522 46.7111 26.1535 47.2633C25.9571 47.8155 25.7584 48.3678 25.5619 48.92C25.3633 49.4744 25.1647 50.0267 24.9682 50.5789C24.7717 51.1311 24.5731 51.6856 24.3766 52.2378C24.3766 52.2378 24.3766 52.2422 24.3744 52.2444C24.3002 52.4534 24.0055 52.4534 23.9357 52.2422C21.9798 46.348 16.7867 31.7963 15.9921 29.6248C15.9419 29.4906 15.8218 29.3982 15.6799 29.3872C15.5533 29.3784 15.4049 29.3762 15.311 29.3762C14.4815 29.3762 12.6348 29.374 11.8074 29.3762C11.1919 29.3586 11.2442 29.6402 11.4276 30.188C12.1349 32.2188 12.8596 34.2649 13.58 36.3176C15.7912 42.599 17.9982 48.887 20.2073 55.153C20.4779 56.1144 21.3337 55.9978 22.2221 55.9934C22.2767 55.9934 22.3312 55.9934 22.388 55.9934H22.5583C23.0822 55.9934 23.6039 55.9934 24.1278 55.9934C25.0511 55.9934 25.9963 55.9956 26.9088 55.9934C27.627 56.0374 28.0788 55.659 28.2666 54.9616C28.8145 53.4281 29.3602 51.8946 29.9169 50.3325C31.4362 46.0708 32.9729 41.7586 34.4922 37.4925C35.0663 35.882 35.6579 34.2209 36.2407 32.5906C36.5223 31.7853 36.8258 30.9691 37.0899 30.188C37.1707 29.9196 37.1859 29.6974 37.0681 29.5654Z" fill="url(#paint0_linear_183_20)"/>
<path d="M30.6227 0.0968416L30.6139 0.0858409C30.531 0.00663609 30.3694 3.56897e-05 30.2494 3.56897e-05C29.7932 3.56897e-05 29.326 3.56897e-05 28.8589 3.56897e-05C28.562 -0.0153652 28.2891 0.0858409 28.1844 0.39386C28.0403 0.774483 27.9093 1.16171 27.7718 1.54453C27.0863 3.46965 26.3747 5.46297 25.6871 7.39028C25.5889 7.6697 25.4885 7.94912 25.3902 8.22854C25.2898 8.50795 25.1916 8.78737 25.0912 9.06899C24.9908 9.3484 24.8903 9.62782 24.7921 9.90944C24.6917 10.1911 24.5913 10.4705 24.4909 10.7499C24.3905 11.0293 24.29 11.3109 24.1918 11.5903C24.1918 11.5903 24.1918 11.5903 24.1918 11.5925C24.1547 11.6981 24.0041 11.6981 23.9692 11.5925C22.9781 8.60476 20.3455 1.22771 19.9417 0.127643C19.9155 0.0594393 19.8544 0.0132365 19.7845 0.00663609C19.7212 0.00223582 19.6448 3.56897e-05 19.5968 3.56897e-05C19.1733 3.56897e-05 18.2368 3.56897e-05 17.8155 3.56897e-05C17.5034 -0.00876484 17.5296 0.134244 17.6234 0.411461C17.9814 1.44112 18.3503 2.47739 18.7149 3.51805C19.8369 6.70164 20.9546 9.88964 22.0744 13.0666C22.2119 13.5551 22.6463 13.4957 23.096 13.4935C23.1244 13.4935 23.1506 13.4935 23.1811 13.4935H23.2684C23.5348 13.4935 23.7989 13.4935 24.0652 13.4935C24.5323 13.4935 25.0126 13.4935 25.4754 13.4935C25.8399 13.5155 26.0691 13.324 26.163 12.9698C26.4402 12.1932 26.7174 11.4143 26.999 10.6223C27.7696 8.46175 28.5489 6.27482 29.3195 4.11209C29.6098 3.29584 29.911 2.45318 30.2057 1.62593C30.3476 1.21671 30.5026 0.803084 30.6358 0.40706C30.6772 0.270652 30.6838 0.158445 30.6248 0.0924413L30.6227 0.0968416Z" fill="url(#paint1_linear_183_20)"/>
<path d="M24.215 22.4282C24.0098 22.404 23.7958 22.7582 23.6474 22.9342C22.3944 24.4083 20.1198 23.9111 18.4084 24.0079C17.0135 24.0079 16.1797 23.9133 15.7278 25.3588C15.5684 25.9022 15.9112 26.4787 15.1864 26.4346C14.4966 26.439 12.4229 26.4412 11.7571 26.4346C10.9996 26.4875 11.0891 25.9154 11.076 25.1762C10.9319 21.6912 12.401 18.8772 15.9308 18.6792C17.1096 18.5956 18.559 18.655 19.8098 18.6374C20.7376 18.6528 21.805 18.699 22.0604 17.6231C22.1565 17.2909 22.1172 16.8993 22.3027 16.6397C22.4075 16.512 22.58 16.4768 22.7546 16.4702C23.3876 16.4548 24.7367 16.4636 25.4701 16.4636C26.8912 16.3624 25.5793 18.248 27.4129 18.5956C28.9584 18.721 30.9252 18.5582 32.4598 18.677C36.221 18.9146 37.5023 21.9244 37.3124 25.5436C37.3059 26.208 37.2185 26.4522 36.6357 26.4302C35.9699 26.4368 33.8656 26.4368 33.1758 26.4302C32.4489 26.4743 32.4685 25.8956 32.307 25.3544C31.8551 23.9089 31.3749 24.0035 29.9822 24.0035C28.3407 23.9199 26.4 24.3269 25.0226 23.2291C24.7476 23.0266 24.5358 22.5228 24.2324 22.426H24.2128L24.215 22.4282Z" fill="url(#paint2_linear_183_20)"/>
<path d="M37.7924 8.22849C47.9036 15.4075 51.1212 29.9636 44.638 40.5573C42.645 43.8993 39.8443 46.6868 36.5918 48.6274C42.6341 44.2359 46.2315 36.7664 45.808 29.3454C45.5002 22.1993 41.4618 15.4361 35.3912 11.9005C34.3499 11.2867 33.9985 9.9358 34.6075 8.88633C35.2514 7.75986 36.762 7.44964 37.7945 8.22629L37.7924 8.22849Z" fill="url(#paint3_linear_183_20)"/>
<path d="M10.2079 50.4623C0.0988398 43.2832 -3.12095 28.7271 3.36229 18.1335C5.35529 14.7915 8.15814 12.0039 11.4085 10.0634C5.3662 14.4527 1.76877 21.9243 2.19225 29.3432C2.50004 36.487 6.53842 43.2524 12.6091 46.788C13.6503 47.4019 14.0018 48.7528 13.3928 49.8022C12.7488 50.9287 11.2382 51.2389 10.2057 50.4623H10.2079Z" fill="url(#paint4_linear_183_20)"/>
</g>
<defs>
<linearGradient id="paint0_linear_183_20" x1="11.3054" y1="42.687" x2="37.1532" y2="42.687" gradientUnits="userSpaceOnUse">
<stop stop-color="#FA8334"/>
<stop offset="0.83" stop-color="#FA9D34"/>
<stop offset="1" stop-color="#FAA334"/>
</linearGradient>
<linearGradient id="paint1_linear_183_20" x1="17.5623" y1="6.75005" x2="30.6663" y2="6.75005" gradientUnits="userSpaceOnUse">
<stop stop-color="#5AB51F"/>
<stop offset="0.39" stop-color="#3A9B1F"/>
<stop offset="1" stop-color="#006D1F"/>
</linearGradient>
<linearGradient id="paint2_linear_183_20" x1="11.0629" y1="21.4513" x2="38.3558" y2="21.4513" gradientUnits="userSpaceOnUse">
<stop stop-color="#FA8334"/>
<stop offset="0.83" stop-color="#FA9D34"/>
<stop offset="1" stop-color="#FAA334"/>
</linearGradient>
<linearGradient id="paint3_linear_183_20" x1="34.3063" y1="28.2123" x2="47.9996" y2="28.2123" gradientUnits="userSpaceOnUse">
<stop stop-color="white"/>
<stop offset="0.43" stop-color="#F6F6F6"/>
<stop offset="0.47" stop-color="#F6F6F6"/>
<stop offset="0.99" stop-color="#F8F8F8"/>
</linearGradient>
<linearGradient id="paint4_linear_183_20" x1="0.000608834" y1="30.4785" x2="13.694" y2="30.4785" gradientUnits="userSpaceOnUse">
<stop stop-color="white"/>
<stop offset="0.43" stop-color="#F6F6F6"/>
<stop offset="0.47" stop-color="#F6F6F6"/>
<stop offset="0.99" stop-color="#F8F8F8"/>
</linearGradient>
<clipPath id="clip0_183_20">
<rect width="48" height="56" fill="white"/>
</clipPath>
</defs>
</svg>
